# xmcd CD database file
#
# Track frame offsets:
#	150
#	20500
#	36975
#	49302
#	68415
#	88482
#	102522
#	121427
#	137652
#	156720
#
# Disc length: 2331 seconds
#
# Revision: 0
# Processed by: cddbd v1.5.1PL0 Copyright (c) Steve Scherf et al.
# Submitted via: CDex 1.51
#
DISCID=9309190a
DTITLE=Cardeal - Coisas do Coração
DYEAR=2001
DGENRE=Country
TTITLE0=Coisas do Coração
TTITLE1=Vai canção
TTITLE2=Santo Antonio Casamenteiro
TTITLE3=de coração para coração
TTITLE4=Eu sou caminhoneiro
TTITLE5=Baile da conquista
TTITLE6=Você é tudo para mim
TTITLE7=Confissões
TTITLE8=Quero você
TTITLE9=Vontade de Voltar
EXTD=YEAR: 2001
EXTT0=
EXTT1=
EXTT2=
EXTT3=
EXTT4=
EXTT5=
EXTT6=
EXTT7=
EXTT8=
EXTT9=
PLAYORDER=
